<svg xmlns="http://www.w3.org/2000/svg" width="97" height="26" viewBox="0 0 97 26" fill="none">
    <g clip-path="url(#clip0_1_4400)">
        <path d="M79.9426 8.46612C80.6448 7.94499 81.5475 7.94499 82.1493 8.67458C82.7512 9.29995 82.6509 10.3422 82.049 10.9676L76.5323 14.7198L82.1493 21.7031C82.7512 22.4327 82.6509 23.4749 81.9487 23.9961C81.6478 24.3088 81.2466 24.413 80.9457 24.413C80.4442 24.413 80.0429 24.2045 79.742 23.7876L73.8241 16.3874L72.821 17.117V22.8496C72.821 23.7876 72.0186 24.5172 71.2162 24.5172C70.4137 24.5172 69.7116 23.7876 69.7116 22.8496V1.69132C69.7116 0.857494 70.4137 0.127899 71.2162 0.127899C72.1189 0.127899 72.821 0.857494 72.821 1.69132V13.3648L79.9426 8.46612Z" fill="black"/>
        <path d="M35.909 9.82105C35.909 8.98723 36.6111 8.25763 37.5138 8.25763C38.3163 8.25763 39.0184 8.883 38.9181 9.82105V17.9508C38.9181 21.5988 36.1096 24.5172 32.5989 24.5172C29.0883 24.5172 26.2797 21.5988 26.2797 17.9508V9.82105C26.2797 8.98723 26.9819 8.25763 27.7843 8.25763C28.687 8.25763 29.3892 8.98723 29.3892 9.82105V17.9508C29.3892 19.8269 30.7934 21.3903 32.5989 21.3903C34.5047 21.3903 35.909 19.8269 35.909 17.9508V9.82105Z" fill="black"/>
        <path fill-rule="evenodd" clip-rule="evenodd" d="M40.9242 16.4916C40.9242 11.9056 44.4349 8.25763 48.8483 8.25763C53.2617 8.25763 56.5717 11.9056 56.5717 16.4916V22.8495C56.5717 23.7876 55.8696 24.5172 54.9668 24.5172C54.365 24.5172 53.4623 23.7876 53.4623 22.8495C52.1583 24.1003 50.6537 24.5172 48.8483 24.5172C44.4349 24.5172 40.9242 21.0777 40.9242 16.4916ZM44.0337 16.4916C44.0337 19.2016 46.2404 21.2861 48.8483 21.2861C51.4562 21.2861 53.4623 19.2016 53.4623 16.4916C53.4623 13.7817 51.4562 11.4887 48.8483 11.4887C46.2404 11.4887 44.0337 13.7817 44.0337 16.4916Z" fill="black"/>
        <path d="M66.3012 8.25763C61.9881 8.25763 58.4775 11.9056 58.4775 16.3874V22.9538C58.4775 23.7876 59.1796 24.6214 60.0823 24.6214C60.8848 24.6214 61.5869 23.8918 61.5869 22.9538V16.3874C61.5869 13.6775 63.6933 11.3845 66.4015 11.3845C67.3043 11.3845 68.0064 10.6549 68.0064 9.71682C67.9061 8.883 67.204 8.25763 66.3012 8.25763Z" fill="black"/>
        <path d="M92.7816 14.6155C92.74 14.6155 92.6498 14.6155 92.6498 14.6155C92.6498 14.6155 92.4979 14.6155 92.3804 14.6155H88.4685C87.5657 14.6155 86.7633 13.7817 86.7633 12.7394C86.7633 11.6972 87.4654 10.8633 88.4685 10.8633H94.5871C95.3895 10.8633 96.0916 10.1337 96.0916 9.29992C96.0916 8.4661 95.3895 7.7365 94.5871 7.7365H88.4685C85.9609 7.7365 83.8545 9.92529 83.8545 12.6352C83.8545 15.3451 85.8606 17.5339 88.4685 17.5339H92.0795C92.9822 17.5339 93.7846 18.3677 93.7846 19.41C93.7846 20.4523 93.0825 21.2861 92.0795 21.2861H85.5597C84.7572 21.2861 84.0551 22.0157 84.0551 22.8495C84.0551 23.6834 84.7572 24.413 85.5597 24.413H92.0795C94.5871 24.413 96.6935 22.2242 96.6935 19.5142C96.7938 17.117 94.9709 14.6155 92.7816 14.6155Z" fill="black"/>
        <path d="M0 12.4267C0 5.75612 5.21583 0.336272 11.6353 0.336272C18.0548 0.336272 23.2706 5.75612 23.2706 12.5309C23.2706 14.6155 22.7691 16.5958 21.8664 18.2635C21.7661 17.2212 20.8633 16.3874 19.76 16.3874H19.5594C20.0609 15.2409 20.3618 13.8859 20.3618 12.5309C20.3618 7.52799 16.4499 3.46311 11.6353 3.46311C6.8207 3.46311 2.90883 7.52799 2.90883 12.5309C2.90883 17.5339 6.8207 21.5987 11.6353 21.5987C13.0396 21.5987 14.4438 21.1818 15.6475 20.5565C15.6475 21.703 16.6505 22.7453 17.7539 22.7453C15.9484 23.8918 13.842 24.5171 11.6353 24.5171C5.21583 24.5171 0 19.0973 0 12.4267Z" fill="black"/>
        <path d="M20.9636 20.1396V18.4719C20.9636 17.7423 20.4621 17.2212 19.7599 17.2212H17.8542C17.152 17.2212 16.6505 17.7423 16.6505 18.4719V20.4522C16.6505 21.1818 17.152 21.703 17.8542 21.703H19.459C20.1612 21.703 20.6627 22.2241 20.6627 22.9537V24.6214C20.6627 25.3509 21.1642 25.8721 21.8663 25.8721H23.7721C24.4743 25.8721 24.9758 25.3509 24.9758 24.6214V22.641C24.9758 21.9114 24.4743 21.3903 23.7721 21.3903H22.1673C21.5654 21.3903 20.9636 20.8692 20.9636 20.1396Z" fill="#FF4669"/>
    </g>
    <defs>
        <clipPath id="clip0_1_4400">
            <rect width="96.6977" height="25.7442" fill="white" transform="translate(0 0.127899)"/>
        </clipPath>
    </defs>
</svg>